<mxfile host="app.diagrams.net" agent="Mozilla/5.0 (Windows NT 10.0; Win64; x64) AppleWebKit/537.36 (KHTML, like Gecko) Chrome/123.0.0.0 Safari/537.36 OPR/109.0.0.0" version="24.7.6">
  <diagram name="Página-1" id="YU4Dycjnp7gRYJhIwkAn">
    <mxGraphModel dx="875" dy="576" grid="1" gridSize="10" guides="1" tooltips="1" connect="1" arrows="1" fold="1" page="1" pageScale="1" pageWidth="827" pageHeight="1169" math="0" shadow="0">
      <root>
        <mxCell id="0" />
        <mxCell id="1" parent="0" />
        <mxCell id="-gvgmfCJkRDJtBgIJwlY-41" value="" style="rounded=0;whiteSpace=wrap;html=1;" parent="1" vertex="1">
          <mxGeometry x="160" y="90" width="560" height="410" as="geometry" />
        </mxCell>
        <mxCell id="-gvgmfCJkRDJtBgIJwlY-1" value="Professor" style="shape=umlActor;verticalLabelPosition=bottom;verticalAlign=top;html=1;outlineConnect=0;fillColor=#fad7ac;strokeColor=#000000;" parent="1" vertex="1">
          <mxGeometry x="100" y="305" width="30" height="60" as="geometry" />
        </mxCell>
        <mxCell id="-gvgmfCJkRDJtBgIJwlY-2" value="Aluno" style="shape=umlActor;verticalLabelPosition=bottom;verticalAlign=top;html=1;outlineConnect=0;fillColor=#fad7ac;strokeColor=#000000;" parent="1" vertex="1">
          <mxGeometry x="740" y="305" width="30" height="60" as="geometry" />
        </mxCell>
        <mxCell id="-gvgmfCJkRDJtBgIJwlY-3" value="simular beacon" style="ellipse;whiteSpace=wrap;html=1;fillColor=#fad7ac;strokeColor=#000000;" parent="1" vertex="1">
          <mxGeometry x="550" y="305" width="130" height="60" as="geometry" />
        </mxCell>
        <mxCell id="-gvgmfCJkRDJtBgIJwlY-7" value="Aplicação mobile para marcar presença escolar" style="text;html=1;align=center;verticalAlign=middle;resizable=0;points=[];autosize=1;strokeColor=none;fillColor=none;" parent="1" vertex="1">
          <mxGeometry x="160" y="60" width="280" height="30" as="geometry" />
        </mxCell>
        <mxCell id="-gvgmfCJkRDJtBgIJwlY-19" style="rounded=0;orthogonalLoop=1;jettySize=auto;html=1;exitX=0.999;exitY=0.423;exitDx=0;exitDy=0;entryX=0.051;entryY=0.717;entryDx=0;entryDy=0;dashed=1;endArrow=open;endFill=0;entryPerimeter=0;exitPerimeter=0;" parent="1" source="-gvgmfCJkRDJtBgIJwlY-8" target="-gvgmfCJkRDJtBgIJwlY-3" edge="1">
          <mxGeometry relative="1" as="geometry">
            <mxPoint x="414" y="467.5" as="sourcePoint" />
            <mxPoint x="564" y="380" as="targetPoint" />
          </mxGeometry>
        </mxCell>
        <mxCell id="-gvgmfCJkRDJtBgIJwlY-8" value="identificar sinal beacon" style="ellipse;whiteSpace=wrap;html=1;fillColor=#fad7ac;strokeColor=#000000;" parent="1" vertex="1">
          <mxGeometry x="250" y="390" width="150" height="65" as="geometry" />
        </mxCell>
        <mxCell id="-gvgmfCJkRDJtBgIJwlY-16" style="rounded=0;orthogonalLoop=1;jettySize=auto;html=1;entryX=0;entryY=0.5;entryDx=0;entryDy=0;strokeColor=default;endArrow=none;endFill=0;" parent="1" source="-gvgmfCJkRDJtBgIJwlY-1" target="-gvgmfCJkRDJtBgIJwlY-8" edge="1">
          <mxGeometry relative="1" as="geometry" />
        </mxCell>
        <mxCell id="-gvgmfCJkRDJtBgIJwlY-17" style="rounded=0;orthogonalLoop=1;jettySize=auto;html=1;exitX=1;exitY=0.5;exitDx=0;exitDy=0;strokeColor=default;endArrow=none;endFill=0;" parent="1" source="-gvgmfCJkRDJtBgIJwlY-3" target="-gvgmfCJkRDJtBgIJwlY-2" edge="1">
          <mxGeometry relative="1" as="geometry">
            <mxPoint x="490" y="440" as="sourcePoint" />
            <mxPoint x="820" y="335" as="targetPoint" />
          </mxGeometry>
        </mxCell>
        <mxCell id="-gvgmfCJkRDJtBgIJwlY-20" value="&amp;lt;include&amp;gt;" style="text;html=1;align=center;verticalAlign=middle;resizable=0;points=[];autosize=1;strokeColor=none;fillColor=none;" parent="1" vertex="1">
          <mxGeometry x="414" y="360" width="80" height="30" as="geometry" />
        </mxCell>
        <mxCell id="-gvgmfCJkRDJtBgIJwlY-21" value="registrar presença" style="ellipse;whiteSpace=wrap;html=1;fillColor=#fad7ac;strokeColor=#000000;" parent="1" vertex="1">
          <mxGeometry x="250" y="240" width="130" height="60" as="geometry" />
        </mxCell>
        <mxCell id="-gvgmfCJkRDJtBgIJwlY-27" style="rounded=0;orthogonalLoop=1;jettySize=auto;html=1;dashed=1;endArrow=open;endFill=0;" parent="1" source="-gvgmfCJkRDJtBgIJwlY-25" target="-gvgmfCJkRDJtBgIJwlY-21" edge="1">
          <mxGeometry relative="1" as="geometry" />
        </mxCell>
        <mxCell id="-gvgmfCJkRDJtBgIJwlY-25" value="exportar presença" style="ellipse;whiteSpace=wrap;html=1;fillColor=#fad7ac;strokeColor=#000000;" parent="1" vertex="1">
          <mxGeometry x="414" y="110" width="130" height="60" as="geometry" />
        </mxCell>
        <mxCell id="-gvgmfCJkRDJtBgIJwlY-26" value="&amp;lt;include&amp;gt;" style="text;html=1;align=center;verticalAlign=middle;resizable=0;points=[];autosize=1;strokeColor=none;fillColor=none;" parent="1" vertex="1">
          <mxGeometry x="333" y="180" width="80" height="30" as="geometry" />
        </mxCell>
        <mxCell id="-gvgmfCJkRDJtBgIJwlY-33" style="rounded=0;orthogonalLoop=1;jettySize=auto;html=1;entryX=0;entryY=1;entryDx=0;entryDy=0;strokeColor=default;endArrow=none;endFill=0;" parent="1" source="-gvgmfCJkRDJtBgIJwlY-1" target="-gvgmfCJkRDJtBgIJwlY-21" edge="1">
          <mxGeometry relative="1" as="geometry">
            <mxPoint x="100" y="244.57999999999998" as="sourcePoint" />
            <mxPoint x="225" y="244.57999999999998" as="targetPoint" />
          </mxGeometry>
        </mxCell>
        <mxCell id="-gvgmfCJkRDJtBgIJwlY-40" value="UC" style="shape=umlFrame;whiteSpace=wrap;html=1;pointerEvents=0;fillColor=#FFFFFF;" parent="1" vertex="1">
          <mxGeometry x="70" y="20" width="730" height="540" as="geometry" />
        </mxCell>
        <mxCell id="1AUR4HAP6LAa8ERAQfpp-2" style="rounded=0;orthogonalLoop=1;jettySize=auto;html=1;dashed=1;endArrow=open;endFill=0;entryX=0.46;entryY=0.043;entryDx=0;entryDy=0;entryPerimeter=0;" parent="1" source="-gvgmfCJkRDJtBgIJwlY-21" target="-gvgmfCJkRDJtBgIJwlY-8" edge="1">
          <mxGeometry relative="1" as="geometry">
            <mxPoint x="370" y="365" as="sourcePoint" />
            <mxPoint x="527" y="296" as="targetPoint" />
          </mxGeometry>
        </mxCell>
        <mxCell id="1AUR4HAP6LAa8ERAQfpp-3" value="&amp;lt;extend&amp;gt;" style="text;html=1;align=center;verticalAlign=middle;resizable=0;points=[];autosize=1;strokeColor=none;fillColor=none;" parent="1" vertex="1">
          <mxGeometry x="250" y="330" width="70" height="30" as="geometry" />
        </mxCell>
        <mxCell id="1AUR4HAP6LAa8ERAQfpp-4" value="" style="shape=note2;boundedLbl=1;whiteSpace=wrap;html=1;size=25;verticalAlign=top;align=center;fillColor=#FAD7AC;strokeColor=#000000;" parent="1" vertex="1">
          <mxGeometry x="380" y="290" width="100" height="50" as="geometry" />
        </mxCell>
        <mxCell id="1AUR4HAP6LAa8ERAQfpp-5" style="rounded=0;orthogonalLoop=1;jettySize=auto;html=1;dashed=1;endArrow=none;endFill=0;entryX=0.984;entryY=0.421;entryDx=0;entryDy=0;entryPerimeter=0;exitX=-0.005;exitY=0.629;exitDx=0;exitDy=0;exitPerimeter=0;" parent="1" source="1AUR4HAP6LAa8ERAQfpp-4" target="1AUR4HAP6LAa8ERAQfpp-3" edge="1">
          <mxGeometry relative="1" as="geometry">
            <mxPoint x="450" y="302" as="sourcePoint" />
            <mxPoint x="352" y="380" as="targetPoint" />
          </mxGeometry>
        </mxCell>
        <mxCell id="1AUR4HAP6LAa8ERAQfpp-6" value="Se o sinal for&amp;nbsp;&lt;div&gt;identificado&lt;/div&gt;" style="text;html=1;align=center;verticalAlign=middle;resizable=0;points=[];autosize=1;strokeColor=none;fillColor=none;" parent="1" vertex="1">
          <mxGeometry x="370" y="300" width="100" height="40" as="geometry" />
        </mxCell>
      </root>
    </mxGraphModel>
  </diagram>
</mxfile>
